<?xml version="1.0" standalone="no"?>
<!DOCTYPE svg PUBLIC "-//W3C//DTD SVG 20010904//EN"
 "http://www.w3.org/TR/2001/REC-SVG-20010904/DTD/svg10.dtd">
<svg version="1.0" xmlns="http://www.w3.org/2000/svg"
 width="500.000000pt" height="500.000000pt" viewBox="0 0 500.000000 500.000000"
 preserveAspectRatio="xMidYMid meet">

<g transform="translate(0.000000,500.000000) scale(0.100000,-0.100000)"
fill="#000000" stroke="none">
<path d="M2053 4665 c-737 -112 -1340 -546 -1662 -1196 -172 -347 -252 -750
-222 -1122 61 -772 490 -1425 1171 -1785 210 -111 434 -182 700 -222 205 -31
499 -25 710 15 339 64 661 208 929 415 262 203 466 450 619 750 62 123 64 125
123 156 160 86 292 227 364 390 102 230 113 597 26 847 -70 202 -225 379 -412
470 -61 30 -69 37 -98 95 -100 199 -239 390 -411 563 -315 317 -678 510 -1142
605 -107 22 -154 26 -363 29 -172 3 -266 0 -332 -10z m2052 -1352 c298 -56
499 -238 577 -524 20 -74 23 -106 22 -269 -1 -204 -13 -273 -72 -401 -126
-277 -438 -428 -834 -406 -310 18 -524 121 -651 315 -98 149 -132 294 -124
537 6 186 19 249 83 383 104 216 324 352 622 382 98 11 274 3 377 -17z m-3002
-80 c13 -43 84 -279 158 -525 73 -246 136 -445 138 -442 3 3 76 238 162 522
l156 517 81 3 82 3 -1 -508 0 -508 -98 -275 -98 -275 -294 -3 -294 -2 -275
776 c-151 427 -276 780 -278 785 -2 5 107 9 267 9 l270 0 24 -77z m1437 -508
l0 -585 186 -2 185 -3 27 -61 c46 -103 103 -186 180 -261 l74 -73 -576 0 -576
0 0 785 0 785 250 0 250 0 0 -585z m169 -1296 c30 -11 41 -32 21 -44 -5 -3
-18 -1 -29 5 -41 22 -80 -25 -61 -75 11 -29 50 -34 70 -10 11 13 8 15 -14 15
-16 0 -26 5 -26 15 0 11 12 15 45 15 42 0 45 -2 45 -27 0 -68 -95 -99 -145
-48 -44 43 -27 132 29 155 28 12 28 12 65 -1z m-863 -49 c10 -27 21 -50 25
-50 4 0 15 23 25 50 15 41 22 50 42 50 27 0 27 0 -17 -105 -42 -100 -59 -99
-102 6 -19 46 -35 87 -37 91 -2 4 8 8 21 8 21 0 28 -8 43 -50z m184 -40 c0
-89 0 -90 -25 -90 -25 0 -25 1 -25 90 0 89 0 90 25 90 25 0 25 -1 25 -90z
m117 37 l32 -52 1 53 c0 49 2 52 25 52 25 0 25 -1 25 -90 0 -89 0 -90 -25 -90
-20 0 -32 12 -58 53 l-32 52 -3 -52 c-3 -45 -6 -53 -23 -53 -17 0 -19 7 -19
90 0 87 1 90 23 90 16 -1 31 -15 54 -53z m233 33 c0 -13 -7 -20 -20 -20 -18 0
-20 -7 -20 -70 0 -68 -1 -70 -25 -70 -24 0 -25 2 -25 70 0 63 -2 70 -20 70
-13 0 -20 7 -20 20 0 18 7 20 65 20 58 0 65 -2 65 -20z m162 -70 l36 -90 -24
0 c-14 0 -27 7 -30 15 -8 21 -70 20 -82 -1 -5 -9 -18 -14 -29 -12 -21 3 -20 6
14 91 29 73 39 87 57 87 19 0 28 -14 58 -90z m356 73 c-2 -11 -14 -19 -31 -21
-38 -5 -36 -32 4 -32 24 0 30 -4 27 -17 -2 -11 -14 -19 -31 -21 -38 -5 -36
-32 3 -32 23 0 30 -4 30 -20 0 -18 -7 -20 -55 -20 l-55 0 0 90 0 90 56 0 c47
0 55 -3 52 -17z m-1045 -356 c18 -4 17 -5 -5 -6 -27 -1 -28 1 -26 42 l1 42 4
-37 c3 -28 9 -38 26 -41z m130 66 c-27 -5 -31 -32 -5 -34 16 -1 16 -2 0 -6
-25 -6 -22 -21 5 -26 19 -4 18 -4 -5 -6 -26 -1 -28 2 -28 39 0 37 2 40 28 39
23 -2 24 -2 5 -6z m125 0 c-10 -2 -18 -11 -18 -19 0 -8 8 -15 18 -15 15 -1 15
-2 0 -6 -9 -2 -19 -12 -21 -21 -3 -9 -5 2 -6 26 -1 38 1 42 22 41 16 -1 18 -2
5 -6z m130 -5 c-9 -7 -19 -26 -21 -43 -4 -27 -4 -27 -6 7 0 20 -7 39 -13 41
-7 3 2 6 21 6 30 1 32 -1 19 -11z m232 -3 c7 -9 10 -25 6 -41 -5 -20 -12 -25
-34 -22 -19 2 -28 9 -30 26 -6 43 33 68 58 37z m102 -16 l11 -32 13 29 c15 34
18 17 4 -20 -12 -33 -26 -33 -34 -2 -3 13 -9 31 -12 40 -3 9 -3 16 0 16 4 0
12 -14 18 -31z m148 20 c-24 -10 -24 -11 -6 -25 17 -12 18 -14 3 -14 -25 0
-21 -18 6 -23 19 -4 18 -4 -5 -6 -26 -1 -28 2 -28 39 0 37 2 40 28 39 l27 0
-25 -10z m146 -20 c1 -14 4 -31 8 -38 4 -6 2 -11 -3 -11 -6 0 -11 7 -11 15 0
21 -28 19 -33 -2 -3 -10 -5 1 -6 25 -1 40 1 43 22 40 16 -2 22 -10 23 -29z"/>
<path d="M3781 2950 c-174 -37 -251 -167 -251 -425 0 -226 56 -349 183 -406
43 -20 69 -23 152 -23 152 0 229 43 287 162 l33 67 0 200 c0 184 -2 204 -22
247 -30 65 -95 132 -152 157 -57 24 -167 34 -230 21z"/>
<path d="M2477 1356 c-11 -27 -8 -36 8 -36 16 0 17 5 6 34 -7 18 -8 18 -14 2z"/>
<path d="M2424 1105 c-9 -21 3 -45 21 -45 21 0 30 27 15 45 -16 19 -29 19 -36
0z"/>
<path d="M2830 1105 c0 -8 7 -15 15 -15 8 0 15 7 15 15 0 8 -7 15 -15 15 -8 0
-15 -7 -15 -15z"/>
</g>
</svg>
